<?xml version="1.0" encoding="utf-8"?>
<!-- Generator: Adobe Illustrator 18.0.0, SVG Export Plug-In . SVG Version: 6.00 Build 0)  -->
<!DOCTYPE svg PUBLIC "-//W3C//DTD SVG 1.1//EN" "http://www.w3.org/Graphics/SVG/1.1/DTD/svg11.dtd">
<svg version="1.1" id="Layer_1" xmlns="http://www.w3.org/2000/svg" xmlns:xlink="http://www.w3.org/1999/xlink" x="0px" y="0px"
	 viewBox="0 0 328.5 385.1" enable-background="new 0 0 328.5 385.1" xml:space="preserve">
<g>
	<path fill="#FFFFFF" d="M31.1,276.6C13.9,276.6,0,262.6,0,245.5l0-95.2c0-17.1,13.9-31.1,31.1-31.1c8.3,0,16.1,3.2,22,9.1
		c5.9,5.9,9.1,13.7,9.1,22l0,95.2c0,8.3-3.2,16.1-9.1,22C47.2,273.3,39.4,276.6,31.1,276.6"/>
	<path fill="#FFFFFF" d="M31.1,127.5c-12.6,0-22.7,10.2-22.7,22.7l0,95.2c0,12.6,10.2,22.7,22.7,22.8c12.6,0,22.7-10.2,22.7-22.8
		l0-95.2C53.8,137.7,43.6,127.5,31.1,127.5"/>
	<path fill="#FFFFFF" d="M275,132.2l-8.4,0l-204.8,0l-8.4,0l0-8.4c0-34.3,18.7-66.2,49.3-85.1L90.8,17.1c-1.5-2.5-1.8-5.8-1-8.7
		c0.9-2.9,2.9-5.5,5.6-6.9C97.1,0.5,99,0,100.9,0c4.2,0,8.1,2.3,10.1,6l12.5,22.7c12.9-4.7,26.5-7.1,40.6-7.1
		c14.3,0,28,2.4,40.9,7.2L217.4,6c2-3.7,5.9-6,10.1-6c1.9,0,3.8,0.5,5.5,1.4c2.8,1.5,4.8,4,5.6,7c0.9,3,0.5,6.1-1,8.8l-11.9,21.7
		c30.6,18.9,49.3,50.8,49.3,85.1L275,132.2z"/>
	<path fill="#FFFFFF" d="M214.4,42l15.9-29c0.8-1.5,0.3-3.5-1.2-4.3c-1.6-0.8-3.5-0.3-4.3,1.3l-16,29.3c-13.5-6-28.6-9.4-44.5-9.3
		c-15.9,0-31,3.3-44.4,9.3l-16-29.2c-0.8-1.5-2.8-2.1-4.3-1.3c-1.5,0.8-2.1,2.8-1.3,4.3l15.9,29c-31.2,16.1-52.3,46.7-52.3,81.9
		l204.8,0C266.6,88.7,245.6,58.1,214.4,42 M117.6,86.8c-4.7,0-8.6-3.8-8.6-8.6c0-4.7,3.8-8.6,8.6-8.6c4.7,0,8.6,3.9,8.6,8.6
		C126.2,82.9,122.4,86.8,117.6,86.8 M210.9,86.8c-4.7,0-8.6-3.8-8.6-8.6c0-4.7,3.8-8.6,8.6-8.6c4.7,0,8.6,3.9,8.6,8.6
		C219.5,82.9,215.6,86.8,210.9,86.8"/>
	<path fill="#FFFFFF" d="M126.2,385.1c-17.1,0-31.1-13.9-31.1-31.1l0-42l-8.2,0c-8.7,0-16.9-3.4-23.1-9.5
		c-6.2-6.2-9.6-14.3-9.5-23.1l0-147.5l0-8.4l8.4,0l203.3,0l8.4,0l0,8.4l0,147.5c0,18-14.6,32.6-32.6,32.6l-8.2,0l0,42
		c0,17.1-13.9,31.1-31.1,31.1c-8.3,0-16.1-3.2-22-9.1c-5.9-5.9-9.1-13.7-9.1-22l0-42l-14,0v42C157.3,371.1,143.3,385.1,126.2,385.1"
		/>
	<path fill="#FFFFFF" d="M62.7,279.3c0,13.4,10.8,24.3,24.3,24.3l16.5,0l0,50.4c0,12.5,10.2,22.7,22.7,22.7
		c12.6,0,22.7-10.2,22.7-22.8l0-50.4l30.7,0l0,50.4c0,12.5,10.2,22.7,22.7,22.7c12.6,0,22.7-10.2,22.7-22.7l0-50.4l16.6,0
		c13.4,0,24.3-10.9,24.3-24.3l0-147.6l-203.3,0L62.7,279.3z"/>
	<path fill="#FFFFFF" d="M297.4,276.5c-17.1,0-31.1-13.9-31.1-31.1l0-95.2c0-17.2,13.9-31.1,31.1-31.1c17.2,0,31.1,13.9,31.1,31.1
		l0,95.2C328.5,262.6,314.6,276.5,297.4,276.5"/>
	<path fill="#FFFFFF" d="M297.4,127.5c-12.6,0-22.7,10.2-22.7,22.7l0,95.2c0,12.6,10.2,22.7,22.7,22.7c12.6,0,22.7-10.2,22.7-22.7
		l0-95.2C320.1,137.7,310,127.5,297.4,127.5"/>
	<path fill="#B185E7" d="M31.1,127.5c-12.6,0-22.7,10.2-22.7,22.7l0,95.2c0,12.6,10.2,22.7,22.7,22.7c12.6,0,22.7-10.2,22.7-22.7
		l0-95.2C53.8,137.7,43.6,127.5,31.1,127.5 M214.4,42l15.9-29c0.8-1.5,0.3-3.4-1.2-4.3c-1.5-0.8-3.5-0.3-4.3,1.3l-16,29.3
		c-13.5-6-28.6-9.4-44.6-9.4c-15.9,0-31,3.3-44.4,9.3l-16-29.2c-0.8-1.5-2.8-2.1-4.3-1.3c-1.5,0.8-2.1,2.8-1.3,4.3l15.9,29
		c-31.2,16.1-52.3,46.7-52.3,81.9l204.8,0C266.6,88.7,245.6,58.1,214.4,42 M117.6,86.8c-4.7,0-8.6-3.8-8.6-8.6
		c0-4.7,3.8-8.6,8.6-8.6c4.7,0,8.6,3.9,8.6,8.6C126.2,82.9,122.4,86.8,117.6,86.8 M210.9,86.8c-4.7,0-8.6-3.8-8.6-8.6
		c0-4.7,3.8-8.6,8.6-8.6c4.7,0,8.6,3.9,8.6,8.6C219.5,82.9,215.6,86.8,210.9,86.8 M62.6,131.8l0,147.6c0,13.4,10.8,24.3,24.3,24.3
		l16.5,0l0,50.4c0,12.5,10.2,22.7,22.7,22.7c12.6,0,22.7-10.2,22.7-22.8l0-50.4l30.7,0l0,50.4c0,12.5,10.2,22.7,22.7,22.7
		c12.6,0,22.7-10.2,22.7-22.7l0-50.4l16.6,0c13.4,0,24.3-10.8,24.3-24.3l0-147.6L62.6,131.8z M320.2,150.2
		c0-12.6-10.2-22.7-22.7-22.7c-12.6,0-22.7,10.2-22.7,22.7l0,95.2c0,12.6,10.2,22.7,22.7,22.7c12.6,0,22.7-10.2,22.7-22.7
		L320.2,150.2z"/>
</g>
</svg>
