<?xml version="1.0" encoding="utf-8"?>
<!-- Generator: Adobe Illustrator 18.0.0, SVG Export Plug-In . SVG Version: 6.00 Build 0)  -->
<!DOCTYPE svg PUBLIC "-//W3C//DTD SVG 1.1//EN" "http://www.w3.org/Graphics/SVG/1.1/DTD/svg11.dtd">
<svg version="1.1" id="svg2811" xmlns:svg="http://www.w3.org/2000/svg"
	 xmlns="http://www.w3.org/2000/svg" xmlns:xlink="http://www.w3.org/1999/xlink" x="0px" y="0px" viewBox="0 0 747.6 909.3"
	 enable-background="new 0 0 747.6 909.3" xml:space="preserve">
<g id="g25472" transform="translate(19.48863,19.49672)">
	<rect x="0" y="0" fill="none" width="708.7" height="870.3"/>
	<g id="g186" transform="matrix(54.85033,0,0,-54.85033,-1411.313,6454.729)">
		<path id="path188" fill="#B185E7" d="M36.5,109.2c0,2,1.6,3,1.7,3c-0.9,1.4-2.4,1.6-2.9,1.6c-1.2,0.1-2.4-0.7-3-0.7
			c-0.6,0-1.6,0.7-2.6,0.7c-1.3,0-2.6-0.8-3.3-2c-1.4-2.4-0.4-6,1-8c0.7-1,1.5-2,2.5-2c1,0,1.4,0.7,2.6,0.7c1.2,0,1.6-0.7,2.6-0.6
			c1.1,0,1.8,1,2.4,2c0.8,1.1,1.1,2.2,1.1,2.3C38.6,106,36.5,106.8,36.5,109.2"/>
	</g>
	<path id="path190" fill="#B185E7" d="M482.3,139c30.4-36.8,50.9-88,45.3-139c-43.8,1.8-96.8,29.2-128.2,66
		c-28.1,32.5-52.8,84.6-46.1,134.6C402,204.4,451.9,175.7,482.3,139"/>
</g>
</svg>
